<?xml version="1.0" encoding="UTF-8" standalone="no"?>
<svg
   xmlns:dc="http://purl.org/dc/elements/1.1/"
   xmlns:cc="http://creativecommons.org/ns#"
   xmlns:rdf="http://www.w3.org/1999/02/22-rdf-syntax-ns#"
   xmlns:svg="http://www.w3.org/2000/svg"
   xmlns="http://www.w3.org/2000/svg"
   viewBox="0 0 1346.1467 388.44"
   height="388.44"
   width="1346.1467"
   xml:space="preserve"
   id="svg2"
   version="1.1"><metadata
     id="metadata8"><rdf:RDF><cc:Work
         rdf:about=""><dc:format>image/svg+xml</dc:format><dc:type
           rdf:resource="http://purl.org/dc/dcmitype/StillImage" /></cc:Work></rdf:RDF></metadata><defs
     id="defs6"><clipPath
       id="clipPath48"
       clipPathUnits="userSpaceOnUse"><path
         id="path46"
         d="M 0,0 H 10096 V 2913 H 0 Z" /></clipPath><clipPath
       id="clipPath54"
       clipPathUnits="userSpaceOnUse"><path
         id="path52"
         d="m 939.766,1765.08 -92.258,-246.04 h 857.752 c 31.39,0 59.54,-13.24 79.49,-34.45 1.62,11.27 2.52,22.77 2.52,34.45 0,135.93 -110.17,246.04 -246.04,246.04 z M 283.66,2147.89 191.344,1901.79 H 1650.56 c 31.39,0 59.61,-13.24 79.56,-34.45 1.56,11.26 2.46,22.77 2.46,34.45 0,135.93 -110.11,246.1 -245.98,246.1 z M 92.3164,2530.57 0,2284.54 h 1568.55 c 31.39,0 59.6,-13.24 79.55,-34.45 1.56,11.26 2.46,22.76 2.46,34.45 0,135.86 -110.11,246.03 -246.04,246.03 z M 584.395,2913.32 492.078,2667.28 H 1513.91 c 31.33,0 59.55,-13.3 79.44,-34.44 1.68,11.26 2.58,22.76 2.58,34.44 0,135.87 -110.17,246.04 -246.1,246.04 z M 1978.67,261.41 c 0,-135.871 110.17,-245.9803 246.04,-245.9803 h 136.65 l 92.32,245.9803 h -392.99 c -31.39,0 -59.61,13.36 -79.56,34.512 -1.62,-11.274 -2.46,-22.774 -2.46,-34.512 m -82.07,382.809 c 0,-135.93 110.23,-246.039 246.1,-246.039 h 574.09 l 92.26,246.039 h -830.38 c -31.39,0 -59.61,13.301 -79.55,34.441 -1.62,-11.32 -2.52,-22.762 -2.52,-34.441 m -54.63,382.741 c 0,-135.87 110.16,-246.03 246.03,-246.03 h 984.22 l 92.25,246.03 H 1923.92 c -31.34,0 -59.55,13.3 -79.5,34.45 -1.56,-11.26 -2.45,-22.7 -2.45,-34.45 m -54.7,382.75 c 0,11.68 0.9,23.18 2.46,34.45 19.95,-21.21 48.16,-34.45 79.55,-34.45 h 939.77 l -92.26,-246.04 h -683.48 c -135.87,0 -246.04,110.11 -246.04,246.04" /></clipPath><linearGradient
       id="linearGradient64"
       spreadMethod="pad"
       gradientTransform="matrix(0,-2836.04,-2836.04,0,1582.24,2871.14)"
       gradientUnits="userSpaceOnUse"
       y2="0"
       x2="1"
       y1="0"
       x1="0"><stop
         id="stop56"
         offset="0"
         style="stop-opacity:1;stop-color:#642277" /><stop
         id="stop58"
         offset="0.507174"
         style="stop-opacity:1;stop-color:#dca9d9" /><stop
         id="stop60"
         offset="0.998791"
         style="stop-opacity:1;stop-color:#76c42b" /><stop
         id="stop62"
         offset="1"
         style="stop-opacity:1;stop-color:#76c42b" /></linearGradient></defs><g
     transform="matrix(1.3333333,0,0,-1.3333333,0,388.44)"
     id="g10"><g
       transform="scale(0.1)"
       id="g12"><path
         id="path14"
         style="fill:#642277;fill-opacity:1;fill-rule:nonzero;stroke:none"
         d="m 3844.85,410.34 168.83,472.039 h 7.71 L 4191.05,410.34 Z m 59.3,684.92 L 3509.24,15.4219 h 194.38 l 81.09,226.7691 h 466.77 l 81.51,-226.7691 h 197.47 L 4135.54,1095.26 h -231.39" /><path
         id="path16"
         style="fill:#642277;fill-opacity:1;fill-rule:nonzero;stroke:none"
         d="m 5633.4,802.93 c -44.24,26.23 -94.63,39.34 -151.18,39.34 -53.49,0 -102.84,-12.098 -148.08,-36.25 -45.28,-24.168 -78.69,-57.84 -100.27,-101.04 h -7.71 c -22.65,43.2 -54.01,76.872 -94.12,101.04 -40.09,24.152 -84.33,36.25 -132.65,36.25 -43.2,0 -81.53,-9.25 -114.93,-27.77 -33.43,-18.512 -62.47,-47.309 -87.16,-86.379 h -7.72 l -20.04,98.719 H 4619.9 V 15.4219 h 177.4 V 499.809 c 0,37.031 6.94,69.152 20.84,96.41 13.87,27.242 32.63,48.332 56.29,63.25 23.65,14.89 49.36,22.371 77.13,22.371 30.85,0 58.09,-6.711 81.76,-20.059 23.65,-13.383 42.16,-33.691 55.54,-60.929 13.35,-27.262 20.05,-60.93 20.05,-101.043 V 15.4219 H 5286.3 V 499.809 c 0,37.031 6.95,69.152 20.84,96.41 13.87,27.242 32.63,48.332 56.29,63.25 23.66,14.89 49.37,22.371 77.13,22.371 30.85,0 58.1,-6.711 81.77,-20.059 23.64,-13.383 42.16,-33.691 55.53,-60.929 13.35,-27.262 20.05,-60.93 20.05,-101.043 V 15.4219 h 177.4 V 518.32 c 0,65.809 -12.61,123.141 -37.79,172.012 -25.21,48.828 -59.92,86.379 -104.12,112.598" /><path
         id="path18"
         style="fill:#642277;fill-opacity:1;fill-rule:nonzero;stroke:none"
         d="M 6549.69,1170.84 H 6369.21 L 6230.37,945.621 h 141.92 l 177.4,225.219" /><path
         id="path20"
         style="fill:#642277;fill-opacity:1;fill-rule:nonzero;stroke:none"
         d="m 6101.36,499.809 c 3.95,24.211 10.05,46.691 18.72,67.101 15.93,37.539 39.57,66.84 70.96,87.93 31.35,21.07 69.15,31.621 113.37,31.621 41.13,0 76.36,-8.742 105.68,-26.211 29.3,-17.512 52.18,-40.371 68.64,-68.648 16.44,-28.313 27.23,-58.891 32.4,-91.793 z m 406.68,288.472 c -57.6,35.989 -125.48,53.989 -203.63,53.989 -77.13,0 -144.76,-16.469 -202.85,-49.372 -58.1,-32.929 -103.11,-80.988 -134.97,-144.218 -31.89,-63.25 -47.83,-139.11 -47.83,-227.539 0,-89.469 15.94,-165.602 47.83,-228.313 C 5998.45,130.09 6043.72,82.2695 6102.34,49.3711 6160.96,16.4414 6229.33,0 6307.5,0 c 64.79,0 121.6,10.8008 170.46,32.4102 48.84,21.5781 88.7,51.1484 119.56,88.6988 30.85,37.52 54.49,80.981 70.96,130.34 h -189.75 c -19.54,-31.879 -42.42,-55.801 -68.64,-71.73 -26.23,-15.957 -60.44,-23.91 -102.59,-23.91 -47.31,0 -86.64,10.8 -118,32.39 -31.39,21.602 -54.77,53.223 -70.2,94.883 -8.85,23.898 -14.86,51.137 -18.64,80.977 h 578.62 c 2.04,9.25 3.86,21.339 5.39,36.25 1.54,14.902 2.32,30.082 2.32,45.511 0,71.969 -15.42,138.059 -46.28,198.219 -30.85,60.16 -75.08,108.223 -132.67,144.242" /><path
         id="path22"
         style="fill:#642277;fill-opacity:1;fill-rule:nonzero;stroke:none"
         d="m 7097.31,803.699 c -33.94,-15.418 -61.7,-40.64 -83.3,-75.578 h -7.71 l -20.06,98.719 H 6836.62 V 15.4219 h 177.39 V 456.621 c 0,40.098 8.72,75.051 26.22,104.891 17.48,29.808 42.16,53.218 74.05,70.187 31.87,16.981 68.89,25.461 111.07,25.461 h 84.85 v 169.68 h -94.1 c -45.27,0 -84.85,-7.711 -118.79,-23.141" /><path
         id="path24"
         style="fill:#642277;fill-opacity:1;fill-rule:nonzero;stroke:none"
         d="m 7424.32,15.4219 h 177.4 V 826.84 h -177.4 V 15.4219" /><path
         id="path26"
         style="fill:#642277;fill-opacity:1;fill-rule:nonzero;stroke:none"
         d="m 7512.26,1160.05 c -29.85,0 -55.03,-10.56 -75.6,-31.63 -20.58,-21.09 -30.85,-46.53 -30.85,-76.36 0,-29.84 10.27,-55.029 30.85,-75.58 20.57,-20.589 45.75,-30.859 75.6,-30.859 30.85,0 56.53,10.27 77.12,30.859 20.56,20.551 30.86,45.74 30.86,75.58 0,29.83 -10.3,55.27 -30.86,76.36 -20.59,21.07 -46.27,31.63 -77.12,31.63" /><path
         id="path28"
         style="fill:#642277;fill-opacity:1;fill-rule:nonzero;stroke:none"
         d="m 8031.33,652.531 c 32.4,19.52 69.16,29.309 110.3,29.309 42.15,0 77.89,-8.75 107.21,-26.231 29.31,-17.488 53.72,-44.218 73.27,-80.211 h 180.49 c -15.42,53.454 -38.83,100 -70.18,139.602 -31.39,39.582 -71.49,70.699 -120.33,93.32 -48.86,22.621 -105.67,33.95 -170.46,33.95 -78.17,0 -146.55,-16.469 -205.16,-49.372 -58.63,-32.929 -103.89,-80.738 -135.76,-143.457 -31.89,-62.742 -47.82,-138.832 -47.82,-228.3 0,-89.469 15.93,-165.602 47.82,-228.313 C 7832.58,130.09 7877.84,82.2695 7936.47,49.3711 7995.08,16.4414 8063.46,0 8141.63,0 c 64.79,0 121.6,11.332 170.46,33.9414 48.84,22.6094 88.94,53.7305 120.33,93.3206 31.35,39.578 54.76,86.129 70.18,139.617 h -180.49 c -19.55,-34.969 -43.96,-61.469 -73.27,-79.449 -29.32,-17.989 -65.06,-26.989 -107.21,-26.989 -41.14,0 -77.9,9.758 -110.3,29.297 -32.39,19.524 -57.34,49.114 -74.81,88.711 -17.5,39.571 -26.23,87.153 -26.23,142.692 0,55.531 8.73,103.089 26.23,142.691 17.47,39.578 42.42,69.148 74.81,88.699" /><path
         id="path30"
         style="fill:#642277;fill-opacity:1;fill-rule:nonzero;stroke:none"
         d="m 9086.46,238.332 c -16.97,-27.25 -40.37,-48.594 -70.19,-64.012 -29.84,-15.429 -64.78,-23.14 -104.9,-23.14 -44.23,0 -78.16,10.019 -101.81,30.082 -23.67,20.047 -35.47,46.519 -35.47,79.449 0,31.859 11.57,57.57 34.71,77.117 23.14,19.543 57.3,29.32 102.57,29.32 h 200.54 v -35.476 c 0,-34.973 -8.49,-66.09 -25.45,-93.34 z m 47.81,568.457 c -49.88,23.641 -109.27,35.481 -178.16,35.481 -89.47,0 -162.74,-22.379 -219.82,-67.098 -57.08,-44.742 -94.36,-103.121 -111.84,-175.09 h 180.49 c 9.25,25.688 26.73,46.52 52.43,62.477 25.71,15.929 57.09,23.902 94.12,23.902 49.35,0 88.43,-12.102 117.22,-36.25 28.78,-24.18 43.2,-58.371 43.2,-102.582 v -44.731 h -205.17 c -65.82,0 -122.12,-10.808 -168.92,-32.398 -46.79,-21.59 -82.02,-51.43 -105.65,-89.48 -23.68,-38.04 -35.49,-81.239 -35.49,-129.571 0,-48.34 11.31,-91.539 33.94,-129.578 22.61,-38.0624 55.54,-67.8827 98.72,-89.4608 C 8772.53,10.8008 8822.41,0 8878.98,0 c 55.54,0 103.36,11.5703 143.46,34.7109 40.12,23.1407 69.93,49.6094 89.47,79.4491 h 7.72 l 20.06,-98.7381 h 149.62 V 542.988 c 0,61.723 -13.37,115.184 -40.11,160.442 -26.75,45.242 -65.05,79.679 -114.93,103.359" /><path
         id="path32"
         style="fill:#642277;fill-opacity:1;fill-rule:nonzero;stroke:none"
         d="m 10052.9,383.352 c -28.8,33.398 -63.01,57.57 -102.59,72.5 -39.6,14.886 -90.78,29.546 -153.49,43.957 -40.11,8.222 -71.74,16.191 -94.88,23.902 -23.14,7.719 -42.17,18 -57.07,30.848 -14.91,12.863 -22.36,29.57 -22.36,50.152 0,24.68 11.3,44.461 33.93,59.391 22.61,14.886 55.01,22.359 97.19,22.359 41.12,0 73.28,-6.93 96.41,-20.82 23.14,-13.891 38.3,-32.661 45.5,-56.309 h 189.76 c -9.3,49.367 -28.8,91.527 -58.6,126.5 -29.87,34.938 -67.66,61.438 -113.41,79.438 -45.77,17.992 -98.99,27 -159.66,27 -64.79,0 -120.86,-10.559 -168.15,-31.622 -47.31,-21.089 -83.3,-49.636 -107.98,-85.609 -24.68,-36.019 -37.02,-76.129 -37.02,-120.328 0,-59.66 14.65,-106.711 43.97,-141.152 29.3,-34.469 64.01,-59.149 104.12,-74.047 40.1,-14.91 91.52,-29.071 154.26,-42.422 39.07,-8.238 69.92,-15.949 92.56,-23.141 22.6,-7.199 41.38,-16.969 56.3,-29.301 14.89,-12.339 22.37,-28.796 22.37,-49.367 0,-26.75 -13.11,-48.351 -39.34,-64.789 -26.23,-16.472 -66.6,-24.683 -121.09,-24.683 -39.1,0 -72.27,8.73 -99.5,26.222 -27.26,17.481 -44.49,40.617 -51.68,69.418 H 9412.71 C 9421.97,199 9441.48,154 9471.33,116.469 9501.15,78.9219 9539.97,50.1289 9587.8,30.082 9635.62,10.0313 9690.89,0 9753.63,0 c 71.97,0 133.43,10.0313 184.34,30.082 50.9,20.0469 89.93,48.5977 117.23,85.609 27.2,37.028 40.9,80.219 40.9,129.59 0,58.61 -14.4,104.629 -43.2,138.071" /><path
         id="path34"
         style="fill:#642277;fill-opacity:1;fill-rule:nonzero;stroke:none"
         d="m 3711.26,2548.16 h 277.67 c 67.88,0 120.83,-19.03 158.88,-57.07 38.05,-38.06 57.08,-88.46 57.08,-151.18 0,-41.14 -8.48,-77.4 -25.45,-108.75 -16.97,-31.38 -41.64,-55.8 -74.05,-73.27 -32.39,-17.5 -71.22,-26.23 -116.46,-26.23 h -277.67 z m 0,-532.2 h 185.72 l 307.91,-431.92 h 146.55 l -309.56,434.24 c 50.16,4.77 95.08,17.46 134.48,38.56 50.9,27.23 90.23,65.3 117.99,114.15 27.78,48.84 41.66,105.14 41.66,168.92 0,63.75 -13.88,120.06 -41.66,168.92 -27.76,48.82 -67.09,86.89 -117.99,114.15 -50.91,27.24 -110.83,40.87 -179.72,40.87 h -416.5 V 1584.04 h 131.12 v 431.92" /><path
         id="path36"
         style="fill:#642277;fill-opacity:1;fill-rule:nonzero;stroke:none"
         d="m 4658.42,2253.52 c 37.01,26.74 83.8,40.11 140.37,40.11 50.38,0 93.33,-11.06 128.82,-33.16 35.47,-22.13 62.7,-51.17 81.75,-87.16 19.01,-36.01 30.58,-75.59 34.71,-118.78 h -487.59 c 4.1,32.62 10.82,62.92 20.95,90.24 16.96,45.75 43.96,82 80.99,108.75 z m 290.77,-659.46 c 43.71,16.97 81.76,42.15 114.16,75.59 32.38,33.4 57.32,74.29 74.81,122.64 h -123.41 c -22.62,-38.07 -51.43,-66.87 -86.38,-86.39 -34.98,-19.55 -75.59,-29.31 -121.87,-29.31 -51.43,0 -96.41,11.81 -134.98,35.48 -38.56,23.65 -68.13,58.61 -88.7,104.89 -16.4,36.9 -25.97,80.28 -29.28,129.59 h 600.04 c 2.05,8.22 3.86,19.28 5.41,33.16 1.54,13.88 2.3,28.54 2.3,43.97 0,59.62 -13.63,118.51 -40.86,176.63 -27.27,58.08 -68.15,106.17 -122.64,144.22 -54.53,38.05 -120.86,57.08 -199,57.08 -69.94,0 -132.42,-16.19 -187.43,-48.59 -55.02,-32.39 -97.95,-79.97 -128.8,-142.69 -30.86,-62.74 -46.28,-137.83 -46.28,-225.22 0,-88.46 15.67,-163.77 47.04,-226 31.37,-62.22 74.83,-109.51 130.36,-141.91 55.53,-32.39 119.79,-48.59 192.82,-48.59 51.42,0 98.97,8.48 142.69,25.45" /><path
         id="path38"
         style="fill:#642277;fill-opacity:1;fill-rule:nonzero;stroke:none"
         d="m 5863.17,1816.96 c -20.58,-46.28 -49.35,-81.24 -86.37,-104.89 -37.03,-23.67 -80.22,-35.48 -129.59,-35.48 -75.08,0 -134.98,27 -179.71,80.99 -44.73,53.99 -67.1,129.81 -67.1,227.53 0,65.8 10.27,121.87 30.85,168.14 20.57,46.28 49.37,81.24 86.38,104.91 37.03,23.64 80.22,35.47 129.58,35.47 49.37,0 92.56,-11.83 129.59,-35.47 37.02,-23.67 65.79,-58.63 86.37,-104.91 20.57,-46.27 30.85,-102.34 30.85,-168.14 0,-65.83 -10.28,-121.87 -30.85,-168.15 z m 146.55,846.89 h -115.7 v -377.93 h -7.71 c -27.76,35.99 -63.24,64.26 -106.42,84.84 -43.2,20.57 -92.57,30.85 -148.11,30.85 -67.87,0 -127.79,-16.19 -179.7,-48.59 -51.95,-32.39 -92.82,-79.97 -122.63,-142.69 -29.85,-62.74 -44.75,-137.83 -44.75,-225.22 0,-87.42 14.9,-162.5 44.75,-225.22 29.81,-62.74 70.68,-110.29 122.63,-142.69 51.91,-32.39 111.83,-48.59 179.7,-48.59 57.59,0 108.76,10.8 153.5,32.39 44.74,21.6 80.98,51.91 108.74,91.02 h 7.72 l 15.42,-107.98 h 92.56 v 1079.81" /><path
         id="path40"
         style="fill:#642277;fill-opacity:1;fill-rule:nonzero;stroke:none"
         d="m 6401.55,2253.52 c 37.02,26.74 83.8,40.11 140.37,40.11 50.37,0 93.34,-11.06 128.81,-33.16 35.48,-22.13 62.72,-51.17 81.75,-87.16 19.03,-36.01 30.6,-75.59 34.71,-118.78 h -487.57 c 4.08,32.62 10.81,62.92 20.94,90.24 16.96,45.75 43.95,82 80.99,108.75 z m 356.34,-461.23 c -22.64,-38.07 -51.43,-66.87 -86.39,-86.39 -34.98,-19.55 -75.59,-29.31 -121.86,-29.31 -51.43,0 -96.42,11.81 -134.98,35.48 -38.58,23.65 -68.14,58.61 -88.71,104.89 -16.4,36.9 -25.96,80.28 -29.28,129.59 h 600.05 c 2.05,8.22 3.86,19.28 5.4,33.16 1.55,13.88 2.31,28.54 2.31,43.97 0,59.62 -13.63,118.51 -40.87,176.63 -27.27,58.08 -68.15,106.17 -122.64,144.22 -54.53,38.05 -120.86,57.08 -199,57.08 -69.94,0 -132.41,-16.19 -187.42,-48.59 -55.03,-32.39 -97.97,-79.97 -128.82,-142.69 -30.85,-62.74 -46.28,-137.83 -46.28,-225.22 0,-88.46 15.68,-163.77 47.06,-226 31.36,-62.22 74.82,-109.51 130.34,-141.91 55.55,-32.39 119.8,-48.59 192.84,-48.59 51.4,0 98.97,8.48 142.69,25.45 43.69,16.97 81.76,42.15 114.15,75.59 32.39,33.4 57.32,74.29 74.81,122.64 h -123.4" /><g
         id="g42"><g
           clip-path="url(#clipPath48)"
           id="g44"><g
             clip-path="url(#clipPath54)"
             id="g50"><path
               id="path66"
               style="fill:url(#linearGradient64);fill-opacity:1;fill-rule:nonzero;stroke:none"
               d="m 2209,15 v 1 h -12 v 1 h -6 v 1 h -7 v 1 h -7 v 1 h -5 v 1 h -3 v 1 h -4 v 1 h -4 v 1 h -4 v 1 h -4 v 1 h -3 v 1 h -3 v 1 h -3 v 1 h -3 v 1 h -2 v 1 h -3 v 1 h -3 v 1 h -2 v 1 h -3 v 1 h -2 v 1 h -2 v 1 h -2 v 1 h -2 v 1 h -2 v 1 h -3 v 1 h -2 v 1 h -2 v 1 h -2 v 1 h -2 v 1 h -2 v 1 h -1 v 1 h -2 v 1 h -1 v 1 h -2 v 1 h -2 v 1 h -1 v 1 h -2 v 1 h -2 v 1 h -1 v 1 h -2 v 1 h -2 v 1 h -1 v 1 h -1 v 1 h -2 v 1 h -1 v 1 h -1 v 1 h -2 v 1 h -1 v 1 h -1 v 1 h -2 v 1 h -1 v 1 h -1 v 1 h -2 v 1 h -1 v 1 h -1 v 1 h -2 v 1 h -1 v 1 h -1 v 1 h -1 v 1 h -1 v 1 h -1 v 1 h -1 v 1 h -1 v 1 h -2 v 1 h -1 v 1 h -1 v 1 h -1 v 1 h -1 v 1 h -1 v 1 h -1 v 1 h -1 v 1 h -1 v 1 h -1 v 1 h -1 v 1 h -1 v 1 h -1 v 1 h -1 v 1 h -1 v 1 h -1 v 1 h -1 v 2 h -1 v 1 h -1 v 1 h -1 v 1 h -1 v 1 h -1 v 1 h -1 v 1 h -1 v 1 h -1 v 2 h -1 v 1 h -1 v 1 h -1 v 2 h -1 v 1 h -1 v 1 h -1 v 2 h -1 v 1 h -1 v 1 h -1 v 2 h -1 v 1 h -1 v 1 h -1 v 2 h -1 v 1 h -1 v 2 h -1 v 1 h -1 v 2 h -1 v 1 h -1 v 2 h -1 v 2 h -1 v 1 h -1 v 2 h -1 v 2 h -1 v 1 h -1 v 2 h -1 v 2 h -1 v 1 h -1 v 2 h -1 v 3 h -1 v 2 h -1 v 2 h -1 v 2 h -1 v 2 h -1 v 2 h -1 v 2 h -1 v 2 h -1 v 2 h -1 v 3 h -1 v 3 h -1 v 2 h -1 v 3 h -1 v 3 h -1 v 3 h -1 v 2 h -1 v 3 h -1 v 4 h -1 v 4 h -1 v 3 h -1 v 4 h -1 v 4 h -1 v 4 h -1 v 6 h -1 v 6 h -1 v 7 h -1 v 6 h -1 v 15 h -1 v 24 h 1 v 11 h 1 v 11 h 2 v -1 h 1 v -1 h 2 v -1 h 1 v -1 h 1 v -1 h 1 v -1 h 1 v -1 h 1 v -1 h 1 v -1 h 1 v -1 h 2 v -1 h 1 v -1 h 1 v -1 h 2 v -1 h 1 v -1 h 2 v -1 h 1 v -1 h 2 v -1 h 1 v -1 h 2 v -1 h 2 v -1 h 2 v -1 h 2 v -1 h 2 v -1 h 2 v -1 h 2 v -1 h 3 v -1 h 2 v -1 h 3 v -1 h 3 v -1 h 4 v -1 h 4 v -1 h 5 v -1 h 7 v -1 h 404 v -3 h -1 v -3 h -1 v -2 h -1 v -3 h -1 v -3 h -1 v -2 h -1 v -3 h -1 v -3 h -1 v -2 h -1 v -3 h -1 v -3 h -1 v -2 h -1 v -3 h -1 v -3 h -1 v -2 h -1 v -3 h -1 v -3 h -1 v -2 h -1 v -3 h -1 v -3 h -1 v -2 h -1 v -3 h -1 v -3 h -1 v -2 h -1 v -3 h -1 v -3 h -1 v -2 h -1 v -3 h -1 v -3 h -1 v -2 h -1 v -3 h -1 v -2 h -1 v -3 h -1 v -3 h -1 v -2 h -1 v -3 h -1 v -3 h -1 v -2 h -1 v -3 h -1 v -3 h -1 v -2 h -1 v -3 h -1 v -3 h -1 v -2 h -1 v -3 h -1 v -3 h -1 v -2 h -1 v -3 h -1 v -3 h -1 v -2 h -1 v -3 h -1 v -3 h -1 v -2 h -1 v -3 h -1 v -3 h -1 v -2 h -1 v -3 h -1 v -3 h -1 v -2 h -1 v -3 h -1 v -3 h -1 v -2 h -1 v -3 h -1 v -3 h -1 v -2 h -1 v -3 h -1 v -3 h -1 v -2 h -1 v -3 h -1 v -3 h -1 v -2 h -1 v -3 h -1 v -3 h -1 v -2 h -1 v -3 h -1 v -3 h -1 v -2 h -1 v -3 h -1 v -3 h -1 v -2 h -1 v -3 h -1 v -3 h -1 v -2 h -1 v -3 h -1 v -3 h -1 v -2 h -1 v -3 h -1 v -3 h -1 v -2 h -1 v -3 h -1 v -3 h -1 v -2 h -1 v -2 z m -85,383 v 1 h -11 v 1 h -6 v 1 h -7 v 1 h -6 v 1 h -5 v 1 h -3 v 1 h -4 v 1 h -4 v 1 h -4 v 1 h -4 v 1 h -3 v 1 h -3 v 1 h -3 v 1 h -2 v 1 h -3 v 1 h -3 v 1 h -2 v 1 h -3 v 1 h -3 v 1 h -2 v 1 h -2 v 1 h -2 v 1 h -2 v 1 h -2 v 1 h -2 v 1 h -2 v 1 h -2 v 1 h -2 v 1 h -2 v 1 h -2 v 1 h -2 v 1 h -1 v 1 h -2 v 1 h -2 v 1 h -1 v 1 h -2 v 1 h -1 v 1 h -2 v 1 h -2 v 1 h -1 v 1 h -2 v 1 h -1 v 1 h -2 v 1 h -1 v 1 h -1 v 1 h -2 v 1 h -1 v 1 h -1 v 1 h -2 v 1 h -1 v 1 h -2 v 1 h -1 v 1 h -1 v 1 h -2 v 1 h -1 v 1 h -1 v 1 h -1 v 1 h -1 v 1 h -1 v 1 h -1 v 1 h -2 v 1 h -1 v 1 h -1 v 1 h -1 v 1 h -1 v 1 h -1 v 1 h -1 v 1 h -1 v 1 h -1 v 1 h -1 v 1 h -2 v 1 h -1 v 2 h -1 v 1 h -1 v 1 h -1 v 1 h -1 v 1 h -1 v 1 h -1 v 1 h -1 v 1 h -1 v 1 h -1 v 1 h -1 v 2 h -1 v 1 h -1 v 1 h -1 v 1 h -1 v 1 h -1 v 1 h -1 v 2 h -1 v 1 h -1 v 1 h -1 v 2 h -1 v 1 h -1 v 1 h -1 v 2 h -1 v 1 h -1 v 1 h -1 v 2 h -1 v 1 h -1 v 1 h -1 v 2 h -1 v 1 h -1 v 2 h -1 v 1 h -1 v 2 h -1 v 2 h -1 v 1 h -1 v 2 h -1 v 2 h -1 v 1 h -1 v 2 h -1 v 2 h -1 v 1 h -1 v 2 h -1 v 2 h -1 v 2 h -1 v 2 h -1 v 2 h -1 v 2 h -1 v 3 h -1 v 2 h -1 v 2 h -1 v 2 h -1 v 2 h -1 v 3 h -1 v 2 h -1 v 3 h -1 v 3 h -1 v 2 h -1 v 3 h -1 v 3 h -1 v 3 h -1 v 3 h -1 v 4 h -1 v 4 h -1 v 4 h -1 v 4 h -1 v 4 h -1 v 5 h -1 v 7 h -1 v 6 h -1 v 7 h -1 v 14 h -1 v 25 h 1 v 11 h 1 v 10 h 1 v 1 h 1 v -1 h 1 v -1 h 1 v -1 h 1 v -1 h 1 v -1 h 1 v -1 h 2 v -1 h 1 v -1 h 1 v -1 h 1 v -1 h 1 v -1 h 2 v -1 h 1 v -1 h 1 v -1 h 2 v -1 h 1 v -1 h 2 v -1 h 1 v -1 h 2 v -1 h 1 v -1 h 2 v -1 h 2 v -1 h 2 v -1 h 2 v -1 h 2 v -1 h 2 v -1 h 3 v -1 h 3 v -1 h 2 v -1 h 3 v -1 h 4 v -1 h 4 v -1 h 5 v -1 h 6 v -1 h 844 v -1 h -1 v -3 h -1 v -3 h -1 v -2 h -1 v -3 h -1 v -3 h -1 v -2 h -1 v -3 h -1 v -3 h -1 v -2 h -1 v -3 h -1 v -3 h -1 v -2 h -1 v -3 h -1 v -3 h -1 v -2 h -1 v -3 h -1 v -3 h -1 v -2 h -1 v -3 h -1 v -3 h -1 v -2 h -1 v -3 h -1 v -3 h -1 v -2 h -1 v -3 h -1 v -3 h -1 v -2 h -1 v -3 h -1 v -3 h -1 v -2 h -1 v -3 h -1 v -3 h -1 v -2 h -1 v -3 h -1 v -3 h -1 v -2 h -1 v -3 h -1 v -3 h -1 v -2 h -1 v -3 h -1 v -3 h -1 v -2 h -1 v -3 h -1 v -3 h -1 v -2 h -1 v -3 h -1 v -3 h -1 v -2 h -1 v -3 h -1 v -3 h -1 v -2 h -1 v -3 h -1 v -3 h -1 v -2 h -1 v -3 h -1 v -3 h -1 v -2 h -1 v -3 h -1 v -3 h -1 v -2 h -1 v -3 h -1 v -3 h -1 v -2 h -1 v -3 h -1 v -3 h -1 v -2 h -1 v -3 h -1 v -3 h -1 v -2 h -1 v -3 h -1 v -3 h -1 v -2 h -1 v -3 h -1 v -3 h -1 v -2 h -1 v -3 h -1 v -3 h -1 v -2 h -1 v -3 h -1 v -3 h -1 v -2 h -1 v -3 h -1 v -3 h -1 v -2 h -1 v -3 h -1 v -3 h -1 v -2 h -1 v -3 h -1 v -3 h -1 v -2 h -1 v -3 h -1 v -3 z m -44,382 v 1 h -15 v 1 h -8 v 1 h -6 v 1 h -7 v 1 h -6 v 1 h -4 v 1 h -4 v 1 h -4 v 1 h -4 v 1 h -4 v 1 h -4 v 1 h -2 v 1 h -3 v 1 h -3 v 1 h -3 v 1 h -2 v 1 h -3 v 1 h -3 v 1 h -3 v 1 h -2 v 1 h -2 v 1 h -2 v 1 h -2 v 1 h -2 v 1 h -2 v 1 h -2 v 1 h -2 v 1 h -2 v 1 h -2 v 1 h -2 v 1 h -2 v 1 h -2 v 1 h -1 v 1 h -2 v 1 h -2 v 1 h -1 v 1 h -2 v 1 h -2 v 1 h -1 v 1 h -2 v 1 h -1 v 1 h -2 v 1 h -1 v 1 h -2 v 1 h -1 v 1 h -1 v 1 h -2 v 1 h -1 v 1 h -1 v 1 h -2 v 1 h -1 v 1 h -1 v 1 h -2 v 1 h -1 v 1 h -1 v 1 h -2 v 1 h -1 v 1 h -1 v 1 h -1 v 1 h -1 v 1 h -1 v 1 h -1 v 1 h -2 v 1 h -1 v 1 h -1 v 1 h -1 v 1 h -1 v 1 h -1 v 1 h -1 v 1 h -1 v 1 h -1 v 1 h -1 v 1 h -1 v 1 h -1 v 1 h -1 v 1 h -1 v 1 h -1 v 1 h -1 v 1 h -1 v 1 h -1 v 1 h -1 v 1 h -1 v 2 h -1 v 1 h -1 v 1 h -1 v 1 h -1 v 1 h -1 v 1 h -1 v 1 h -1 v 2 h -1 v 1 h -1 v 1 h -1 v 2 h -1 v 1 h -1 v 1 h -1 v 2 h -1 v 1 h -1 v 1 h -1 v 2 h -1 v 1 h -1 v 1 h -1 v 2 h -1 v 1 h -1 v 2 h -1 v 1 h -1 v 2 h -1 v 1 h -1 v 2 h -1 v 2 h -1 v 1 h -1 v 2 h -1 v 2 h -1 v 1 h -1 v 2 h -1 v 2 h -1 v 2 h -1 v 2 h -1 v 2 h -1 v 2 h -1 v 2 h -1 v 2 h -1 v 2 h -1 v 2 h -1 v 2 h -1 v 2 h -1 v 3 h -1 v 2 h -1 v 3 h -1 v 3 h -1 v 2 h -1 v 3 h -1 v 3 h -1 v 3 h -1 v 2 h -1 v 4 h -1 v 4 h -1 v 4 h -1 v 4 h -1 v 4 h -1 v 4 h -1 v 6 h -1 v 7 h -1 v 6 h -1 v 9 h -1 v 15 h -1 v 16 h 1 v 11 h 1 v 12 h 1 v 3 h 1 v -1 h 1 v -1 h 1 v -1 h 1 v -1 h 1 v -1 h 1 v -1 h 2 v -1 h 1 v -1 h 1 v -1 h 1 v -1 h 1 v -1 h 2 v -1 h 1 v -1 h 1 v -1 h 2 v -1 h 1 v -1 h 2 v -1 h 1 v -1 h 2 v -1 h 1 v -1 h 2 v -1 h 2 v -1 h 2 v -1 h 2 v -1 h 2 v -1 h 2 v -1 h 3 v -1 h 2 v -1 h 3 v -1 h 3 v -1 h 4 v -1 h 3 v -1 h 5 v -1 h 6 v -1 h 11 v -1 h 1244 v -2 h -1 v -2 h -1 v -3 h -1 v -3 h -1 v -2 h -1 v -3 h -1 v -3 h -1 v -2 h -1 v -3 h -1 v -3 h -1 v -2 h -1 v -3 h -1 v -3 h -1 v -2 h -1 v -3 h -1 v -3 h -1 v -2 h -1 v -3 h -1 v -3 h -1 v -2 h -1 v -3 h -1 v -3 h -1 v -2 h -1 v -3 h -1 v -3 h -1 v -2 h -1 v -3 h -1 v -3 h -1 v -2 h -1 v -3 h -1 v -3 h -1 v -2 h -1 v -3 h -1 v -3 h -1 v -2 h -1 v -3 h -1 v -3 h -1 v -2 h -1 v -3 h -1 v -3 h -1 v -2 h -1 v -3 h -1 v -3 h -1 v -2 h -1 v -3 h -1 v -3 h -1 v -2 h -1 v -3 h -1 v -3 h -1 v -2 h -1 v -3 h -1 v -3 h -1 v -2 h -1 v -3 h -1 v -3 h -1 v -2 h -1 v -3 h -1 v -3 h -1 v -2 h -1 v -3 h -1 v -3 h -1 v -2 h -1 v -3 h -1 v -3 h -1 v -2 h -1 v -3 h -1 v -3 h -1 v -2 h -1 v -3 h -1 v -3 h -1 v -2 h -1 v -3 h -1 v -3 h -1 v -2 h -1 v -3 h -1 v -3 h -1 v -2 h -1 v -3 h -1 v -3 h -1 v -2 h -1 v -3 h -1 v -3 h -1 v -2 h -1 v -3 h -1 v -3 h -1 v -2 h -1 v -3 h -1 v -3 h -1 v -2 h -1 v -3 h -1 v -3 h -1 v -2 h -1 v -3 z m -58,383 v 1 h -15 v 1 h -6 v 1 h -7 v 1 h -6 v 1 h -6 v 1 h -4 v 1 h -4 v 1 h -4 v 1 h -4 v 1 h -4 v 1 h -3 v 1 h -3 v 1 h -3 v 1 h -2 v 1 h -3 v 1 h -3 v 1 h -2 v 1 h -3 v 1 h -3 v 1 h -2 v 1 h -2 v 1 h -2 v 1 h -2 v 1 h -2 v 1 h -2 v 1 h -2 v 1 h -3 v 1 h -2 v 1 h -2 v 1 h -2 v 1 h -1 v 1 h -2 v 1 h -1 v 1 h -2 v 1 h -2 v 1 h -1 v 1 h -2 v 1 h -2 v 1 h -1 v 1 h -2 v 1 h -2 v 1 h -1 v 1 h -2 v 1 h -1 v 1 h -1 v 1 h -2 v 1 h -1 v 1 h -1 v 1 h -2 v 1 h -1 v 1 h -1 v 1 h -2 v 1 h -1 v 1 h -1 v 1 h -2 v 1 h -1 v 1 h -1 v 1 h -1 v 1 h -1 v 1 h -1 v 1 h -1 v 1 h -1 v 1 h -2 v 1 h -1 v 1 h -1 v 1 h -1 v 1 h -1 v 1 h -1 v 1 h -1 v 1 h -1 v 1 h -1 v 1 h -1 v 1 h -1 v 1 h -1 v 1 h -1 v 1 h -1 v 1 h -1 v 1 h -1 v 1 h -1 v 1 h -1 v 1 h -1 v 1 h -1 v 2 h -1 v 1 h -1 v 1 h -1 v 1 h -1 v 1 h -1 v 1 h -1 v 1 h -1 v 2 h -1 v 1 h -1 v 1 h -1 v 2 h -1 v 1 h -1 v 1 h -1 v 2 h -1 v 1 h -1 v 1 h -1 v 2 h -1 v 1 h -1 v 1 h -1 v 2 h -1 v 1 h -1 v 2 h -1 v 1 h -1 v 2 h -1 v 2 h -1 v 1 h -1 v 2 h -1 v 2 h -1 v 1 h -1 v 2 h -1 v 2 h -1 v 1 h -1 v 2 h -1 v 2 h -1 v 2 h -1 v 2 h -1 v 2 h -1 v 2 h -1 v 2 h -1 v 2 h -1 v 2 h -1 v 3 h -1 v 2 h -1 v 2 h -1 v 3 h -1 v 3 h -1 v 2 h -1 v 3 h -1 v 3 h -1 v 2 h -1 v 3 h -1 v 3 h -1 v 4 h -1 v 4 h -1 v 4 h -1 v 4 h -1 v 4 h -1 v 4 h -1 v 7 h -1 v 6 h -1 v 7 h -1 v 11 h -1 v 35 h 1 v 11 h 1 v 7 h 1 v -1 h 1 v -1 h 1 v -1 h 1 v -1 h 1 v -1 h 1 v -1 h 2 v -1 h 1 v -1 h 1 v -1 h 1 v -1 h 1 v -1 h 2 v -1 h 1 v -1 h 1 v -1 h 1 v -1 h 2 v -1 h 2 v -1 h 1 v -1 h 2 v -1 h 1 v -1 h 2 v -1 h 2 v -1 h 2 v -1 h 2 v -1 h 2 v -1 h 2 v -1 h 2 v -1 h 3 v -1 h 3 v -1 h 2 v -1 h 4 v -1 h 4 v -1 h 4 v -1 h 6 v -1 h 9 v -1 h 947 v -1 h -1 v -3 h -1 v -2 h -1 v -3 h -1 v -3 h -1 v -2 h -1 v -3 h -1 v -3 h -1 v -2 h -1 v -3 h -1 v -3 h -1 v -2 h -1 v -3 h -1 v -3 h -1 v -2 h -1 v -3 h -1 v -3 h -1 v -2 h -1 v -3 h -1 v -3 h -1 v -2 h -1 v -3 h -1 v -3 h -1 v -2 h -1 v -3 h -1 v -3 h -1 v -2 h -1 v -3 h -1 v -3 h -1 v -2 h -1 v -3 h -1 v -3 h -1 v -2 h -1 v -3 h -1 v -3 h -1 v -2 h -1 v -3 h -1 v -3 h -1 v -2 h -1 v -3 h -1 v -3 h -1 v -2 h -1 v -3 h -1 v -3 h -1 v -2 h -1 v -3 h -1 v -3 h -1 v -2 h -1 v -3 h -1 v -3 h -1 v -2 h -1 v -3 h -1 v -3 h -1 v -2 h -1 v -3 h -1 v -3 h -1 v -2 h -1 v -3 h -1 v -3 h -1 v -2 h -1 v -3 h -1 v -3 h -1 v -2 h -1 v -3 h -1 v -3 h -1 v -2 h -1 v -3 h -1 v -3 h -1 v -2 h -1 v -3 h -1 v -3 h -1 v -2 h -1 v -3 h -1 v -3 h -1 v -2 h -1 v -3 h -1 v -3 h -1 v -2 h -1 v -3 h -1 v -3 h -1 v -2 h -1 v -3 h -1 v -3 h -1 v -2 h -1 v -3 h -1 v -3 h -1 v -2 h -1 v -3 h -1 v -3 h -1 v -2 h -1 v -3 h -1 v -3 h -1 v -2 h -1 v -1 z m -238,321 v 1 h -1 v 1 h -1 v 1 h -1 v 1 h -1 v 1 h -1 v 1 h -1 v 1 h -1 v 1 h -2 v 1 h -1 v 1 h -1 v 1 h -1 v 1 h -2 v 1 h -1 v 1 h -1 v 1 h -2 v 1 h -1 v 1 h -2 v 1 h -2 v 1 h -1 v 1 h -2 v 1 h -2 v 1 h -2 v 1 h -2 v 1 h -2 v 1 h -2 v 1 h -2 v 1 h -3 v 1 h -3 v 1 h -3 v 1 h -3 v 1 h -4 v 1 h -5 v 1 h -6 v 1 h -11 v 1 H 847 v 2 h 1 v 3 h 1 v 2 h 1 v 3 h 1 v 3 h 1 v 2 h 1 v 3 h 1 v 3 h 1 v 2 h 1 v 3 h 1 v 3 h 1 v 2 h 1 v 3 h 1 v 3 h 1 v 2 h 1 v 3 h 1 v 3 h 1 v 2 h 1 v 3 h 1 v 3 h 1 v 2 h 1 v 3 h 1 v 3 h 1 v 2 h 1 v 3 h 1 v 3 h 1 v 2 h 1 v 3 h 1 v 3 h 1 v 2 h 1 v 3 h 1 v 3 h 1 v 2 h 1 v 3 h 1 v 3 h 1 v 2 h 1 v 3 h 1 v 3 h 1 v 2 h 1 v 3 h 1 v 3 h 1 v 2 h 1 v 3 h 1 v 3 h 1 v 2 h 1 v 3 h 1 v 3 h 1 v 2 h 1 v 3 h 1 v 3 h 1 v 2 h 1 v 3 h 1 v 3 h 1 v 2 h 1 v 3 h 1 v 3 h 1 v 2 h 1 v 3 h 1 v 3 h 1 v 2 h 1 v 3 h 1 v 3 h 1 v 2 h 1 v 3 h 1 v 3 h 1 v 2 h 1 v 3 h 1 v 3 h 1 v 2 h 1 v 3 h 1 v 3 h 1 v 2 h 1 v 3 h 1 v 3 h 1 v 2 h 1 v 3 h 1 v 3 h 1 v 2 h 1 v 3 h 1 v 3 h 1 v 2 h 1 v 3 h 1 v 3 h 1 v 2 h 1 v 3 h 1 v 3 h 1 v 2 h 1 v 3 h 1 v 3 h 1 v 2 h 1 v 3 h 1 v 3 h 1 v 2 h 610 v -1 h 15 v -1 h 8 v -1 h 7 v -1 h 6 v -1 h 7 v -1 h 4 v -1 h 3 v -1 h 4 v -1 h 4 v -1 h 4 v -1 h 4 v -1 h 3 v -1 h 2 v -1 h 3 v -1 h 3 v -1 h 3 v -1 h 2 v -1 h 3 v -1 h 3 v -1 h 2 v -1 h 2 v -1 h 2 v -1 h 2 v -1 h 2 v -1 h 2 v -1 h 3 v -1 h 2 v -1 h 2 v -1 h 2 v -1 h 2 v -1 h 1 v -1 h 2 v -1 h 2 v -1 h 1 v -1 h 2 v -1 h 2 v -1 h 1 v -1 h 2 v -1 h 1 v -1 h 2 v -1 h 2 v -1 h 1 v -1 h 2 v -1 h 1 v -1 h 1 v -1 h 2 v -1 h 1 v -1 h 1 v -1 h 2 v -1 h 1 v -1 h 1 v -1 h 2 v -1 h 1 v -1 h 1 v -1 h 2 v -1 h 1 v -1 h 1 v -1 h 1 v -1 h 1 v -1 h 2 v -1 h 1 v -1 h 1 v -1 h 1 v -1 h 1 v -1 h 1 v -1 h 1 v -1 h 1 v -1 h 1 v -1 h 1 v -1 h 2 v -1 h 1 v -1 h 1 v -1 h 1 v -1 h 1 v -2 h 1 v -1 h 1 v -1 h 1 v -1 h 1 v -1 h 1 v -1 h 1 v -1 h 1 v -1 h 1 v -1 h 1 v -1 h 1 v -2 h 1 v -1 h 1 v -1 h 1 v -1 h 1 v -1 h 1 v -2 h 1 v -1 h 1 v -1 h 1 v -2 h 1 v -1 h 1 v -1 h 1 v -2 h 1 v -1 h 1 v -1 h 1 v -2 h 1 v -1 h 1 v -1 h 1 v -2 h 1 v -1 h 1 v -2 h 1 v -1 h 1 v -2 h 1 v -2 h 1 v -1 h 1 v -2 h 1 v -2 h 1 v -1 h 1 v -2 h 1 v -2 h 1 v -1 h 1 v -2 h 1 v -2 h 1 v -2 h 1 v -2 h 1 v -2 h 1 v -2 h 1 v -3 h 1 v -2 h 1 v -2 h 1 v -2 h 1 v -2 h 1 v -3 h 1 v -2 h 1 v -3 h 1 v -3 h 1 v -3 h 1 v -2 h 1 v -3 h 1 v -3 h 1 v -3 h 1 v -4 h 1 v -4 h 1 v -4 h 1 v -4 h 1 v -4 h 1 v -6 h 1 v -6 h 1 v -7 h 1 v -6 h 1 v -15 h 1 v -22 h -1 v -12 h -1 v -10 h -1 v -2 z m -55,383 v 1 h -1 v 1 h -1 v 1 h -1 v 1 h -1 v 1 h -1 v 1 h -1 v 1 h -1 v 1 h -2 v 1 h -1 v 1 h -1 v 1 h -1 v 1 h -2 v 1 h -1 v 1 h -1 v 1 h -2 v 1 h -1 v 1 h -2 v 1 h -2 v 1 h -1 v 1 h -2 v 1 h -2 v 1 h -2 v 1 h -2 v 1 h -2 v 1 h -2 v 1 h -3 v 1 h -2 v 1 h -3 v 1 h -3 v 1 h -4 v 1 h -4 v 1 h -5 v 1 h -6 v 1 H 191 v 3 h 1 v 3 h 1 v 2 h 1 v 3 h 1 v 3 h 1 v 2 h 1 v 3 h 1 v 3 h 1 v 2 h 1 v 3 h 1 v 3 h 1 v 2 h 1 v 3 h 1 v 3 h 1 v 2 h 1 v 3 h 1 v 3 h 1 v 2 h 1 v 3 h 1 v 3 h 1 v 2 h 1 v 3 h 1 v 3 h 1 v 2 h 1 v 3 h 1 v 3 h 1 v 2 h 1 v 3 h 1 v 3 h 1 v 2 h 1 v 3 h 1 v 3 h 1 v 2 h 1 v 3 h 1 v 3 h 1 v 2 h 1 v 3 h 1 v 3 h 1 v 2 h 1 v 3 h 1 v 3 h 1 v 2 h 1 v 3 h 1 v 3 h 1 v 2 h 1 v 3 h 1 v 3 h 1 v 2 h 1 v 3 h 1 v 3 h 1 v 2 h 1 v 3 h 1 v 3 h 1 v 2 h 1 v 3 h 1 v 3 h 1 v 2 h 1 v 3 h 1 v 3 h 1 v 2 h 1 v 3 h 1 v 3 h 1 v 2 h 1 v 3 h 1 v 3 h 1 v 2 h 1 v 3 h 1 v 3 h 1 v 2 h 1 v 3 h 1 v 3 h 1 v 2 h 1 v 3 h 1 v 3 h 1 v 2 h 1 v 3 h 1 v 3 h 1 v 2 h 1 v 3 h 1 v 3 h 1 v 2 h 1 v 3 h 1 v 3 h 1 v 2 h 1 v 3 h 1 v 3 h 1 v 2 h 1 v 3 h 1 v 3 h 1 v 2 h 1 v 3 h 1 v 3 h 1 v 1 h 1224 v -1 h 9 v -1 h 7 v -1 h 6 v -1 h 7 v -1 h 4 v -1 h 4 v -1 h 4 v -1 h 4 v -1 h 4 v -1 h 4 v -1 h 2 v -1 h 3 v -1 h 3 v -1 h 3 v -1 h 2 v -1 h 3 v -1 h 3 v -1 h 3 v -1 h 2 v -1 h 2 v -1 h 2 v -1 h 2 v -1 h 2 v -1 h 2 v -1 h 2 v -1 h 3 v -1 h 2 v -1 h 2 v -1 h 2 v -1 h 1 v -1 h 2 v -1 h 2 v -1 h 1 v -1 h 2 v -1 h 2 v -1 h 1 v -1 h 2 v -1 h 1 v -1 h 2 v -1 h 2 v -1 h 1 v -1 h 2 v -1 h 1 v -1 h 1 v -1 h 2 v -1 h 1 v -1 h 1 v -1 h 2 v -1 h 1 v -1 h 1 v -1 h 2 v -1 h 1 v -1 h 1 v -1 h 2 v -1 h 1 v -1 h 1 v -1 h 1 v -1 h 2 v -1 h 1 v -1 h 1 v -1 h 1 v -1 h 1 v -1 h 1 v -1 h 1 v -1 h 1 v -1 h 1 v -1 h 1 v -1 h 2 v -1 h 1 v -1 h 1 v -1 h 1 v -1 h 1 v -1 h 1 v -1 h 1 v -2 h 1 v -1 h 1 v -1 h 1 v -1 h 1 v -1 h 1 v -1 h 1 v -1 h 1 v -1 h 1 v -1 h 1 v -1 h 1 v -2 h 1 v -1 h 1 v -1 h 1 v -1 h 1 v -1 h 1 v -2 h 1 v -1 h 1 v -1 h 1 v -2 h 1 v -1 h 1 v -1 h 1 v -2 h 1 v -1 h 1 v -1 h 1 v -2 h 1 v -1 h 1 v -1 h 1 v -2 h 1 v -1 h 1 v -2 h 1 v -2 h 1 v -1 h 1 v -2 h 1 v -2 h 1 v -1 h 1 v -2 h 1 v -2 h 1 v -1 h 1 v -2 h 1 v -2 h 1 v -2 h 1 v -2 h 1 v -2 h 1 v -2 h 1 v -2 h 1 v -2 h 1 v -2 h 1 v -2 h 1 v -2 h 1 v -2 h 1 v -3 h 1 v -3 h 1 v -2 h 1 v -3 h 1 v -3 h 1 v -3 h 1 v -2 h 1 v -3 h 1 v -3 h 1 v -4 h 1 v -4 h 1 v -4 h 1 v -4 h 1 v -4 h 1 v -5 h 1 v -6 h 1 v -7 h 1 v -7 h 1 v -12 h 1 v -30 h -1 v -12 h -1 v -8 z m -82,383 v 1 h -1 v 1 h -1 v 1 h -1 v 1 h -1 v 1 h -1 v 1 h -2 v 1 h -1 v 1 h -1 v 1 h -1 v 1 h -1 v 1 h -2 v 1 h -1 v 1 h -1 v 1 h -2 v 1 h -1 v 1 h -2 v 1 h -1 v 1 h -2 v 1 h -2 v 1 h -1 v 1 h -2 v 1 h -2 v 1 h -2 v 1 h -2 v 1 h -3 v 1 h -2 v 1 h -3 v 1 h -3 v 1 h -3 v 1 h -4 v 1 h -4 v 1 h -6 v 1 h -6 v 1 H 0 v 4 h 1 v 2 h 1 v 3 h 1 v 3 h 1 v 2 h 1 v 3 h 1 v 3 h 1 v 2 h 1 v 3 h 1 v 3 h 1 v 2 h 1 v 3 h 1 v 3 h 1 v 2 h 1 v 3 h 1 v 3 h 1 v 2 h 1 v 3 h 1 v 3 h 1 v 2 h 1 v 3 h 1 v 3 h 1 v 2 h 1 v 3 h 1 v 3 h 1 v 2 h 1 v 3 h 1 v 3 h 1 v 2 h 1 v 3 h 1 v 3 h 1 v 2 h 1 v 3 h 1 v 3 h 1 v 2 h 1 v 3 h 1 v 3 h 1 v 2 h 1 v 3 h 1 v 3 h 1 v 2 h 1 v 3 h 1 v 3 h 1 v 2 h 1 v 3 h 1 v 3 h 1 v 2 h 1 v 3 h 1 v 3 h 1 v 2 h 1 v 3 h 1 v 3 h 1 v 2 h 1 v 3 h 1 v 3 h 1 v 2 h 1 v 3 h 1 v 3 h 1 v 2 h 1 v 3 h 1 v 3 h 1 v 2 h 1 v 3 h 1 v 3 h 1 v 2 h 1 v 3 h 1 v 3 h 1 v 2 h 1 v 3 h 1 v 3 h 1 v 2 h 1 v 3 h 1 v 3 h 1 v 2 h 1 v 3 h 1 v 3 h 1 v 2 h 1 v 3 h 1 v 3 h 1 v 2 h 1 v 3 h 1 v 3 h 1 v 2 h 1 v 3 h 1 v 3 h 1 v 2 h 1 v 3 h 1 v 3 h 1 v 2 h 1 v 3 h 1 v 3 h 1 v 2 h 1 v 1 h 1328 v -1 h 12 v -1 h 7 v -1 h 6 v -1 h 7 v -1 h 5 v -1 h 4 v -1 h 4 v -1 h 4 v -1 h 3 v -1 h 4 v -1 h 4 v -1 h 2 v -1 h 3 v -1 h 3 v -1 h 3 v -1 h 2 v -1 h 3 v -1 h 3 v -1 h 2 v -1 h 2 v -1 h 2 v -1 h 3 v -1 h 2 v -1 h 2 v -1 h 2 v -1 h 2 v -1 h 2 v -1 h 2 v -1 h 2 v -1 h 2 v -1 h 1 v -1 h 2 v -1 h 2 v -1 h 1 v -1 h 2 v -1 h 2 v -1 h 1 v -1 h 2 v -1 h 2 v -1 h 1 v -1 h 2 v -1 h 1 v -1 h 2 v -1 h 1 v -1 h 1 v -1 h 2 v -1 h 1 v -1 h 1 v -1 h 2 v -1 h 1 v -1 h 1 v -1 h 2 v -1 h 1 v -1 h 1 v -1 h 2 v -1 h 1 v -1 h 1 v -1 h 1 v -1 h 1 v -1 h 1 v -1 h 1 v -1 h 2 v -1 h 1 v -1 h 1 v -1 h 1 v -1 h 1 v -1 h 1 v -1 h 1 v -1 h 1 v -1 h 1 v -1 h 1 v -1 h 1 v -1 h 1 v -1 h 1 v -1 h 1 v -1 h 1 v -1 h 1 v -1 h 1 v -1 h 1 v -1 h 1 v -1 h 1 v -1 h 1 v -2 h 1 v -1 h 1 v -1 h 1 v -1 h 1 v -1 h 1 v -1 h 1 v -1 h 1 v -2 h 1 v -1 h 1 v -1 h 1 v -2 h 1 v -1 h 1 v -1 h 1 v -2 h 1 v -1 h 1 v -1 h 1 v -2 h 1 v -1 h 1 v -1 h 1 v -2 h 1 v -1 h 1 v -2 h 1 v -1 h 1 v -2 h 1 v -2 h 1 v -1 h 1 v -2 h 1 v -2 h 1 v -1 h 1 v -2 h 1 v -2 h 1 v -1 h 1 v -2 h 1 v -2 h 1 v -2 h 1 v -2 h 1 v -2 h 1 v -2 h 1 v -2 h 1 v -3 h 1 v -2 h 1 v -2 h 1 v -2 h 1 v -2 h 1 v -3 h 1 v -3 h 1 v -3 h 1 v -2 h 1 v -3 h 1 v -3 h 1 v -2 h 1 v -4 h 1 v -4 h 1 v -4 h 1 v -3 h 1 v -4 h 1 v -4 h 1 v -5 h 1 v -7 h 1 v -6 h 1 v -7 h 1 v -12 h 1 v -30 h -1 v -12 h -1 v -8 z m -54,382 v 1 h -1 v 1 h -1 v 1 h -1 v 1 h -1 v 1 h -1 v 1 h -1 v 1 h -2 v 1 h -1 v 1 h -1 v 1 h -1 v 1 h -2 v 1 h -1 v 1 h -1 v 1 h -1 v 1 h -2 v 1 h -1 v 1 h -2 v 1 h -2 v 1 h -1 v 1 h -2 v 1 h -2 v 1 h -2 v 1 h -2 v 1 h -2 v 1 h -2 v 1 h -2 v 1 h -3 v 1 h -2 v 1 h -3 v 1 h -4 v 1 h -4 v 1 h -4 v 1 h -6 v 1 h -9 v 1 H 492 v 3 h 1 v 3 h 1 v 3 h 1 v 2 h 1 v 3 h 1 v 3 h 1 v 2 h 1 v 3 h 1 v 3 h 1 v 2 h 1 v 3 h 1 v 3 h 1 v 2 h 1 v 3 h 1 v 3 h 1 v 2 h 1 v 3 h 1 v 3 h 1 v 2 h 1 v 3 h 1 v 3 h 1 v 2 h 1 v 3 h 1 v 3 h 1 v 2 h 1 v 3 h 1 v 3 h 1 v 2 h 1 v 3 h 1 v 3 h 1 v 2 h 1 v 3 h 1 v 3 h 1 v 2 h 1 v 3 h 1 v 3 h 1 v 2 h 1 v 3 h 1 v 3 h 1 v 2 h 1 v 3 h 1 v 3 h 1 v 2 h 1 v 3 h 1 v 2 h 1 v 3 h 1 v 3 h 1 v 2 h 1 v 3 h 1 v 3 h 1 v 2 h 1 v 3 h 1 v 3 h 1 v 2 h 1 v 3 h 1 v 3 h 1 v 2 h 1 v 3 h 1 v 3 h 1 v 2 h 1 v 3 h 1 v 3 h 1 v 2 h 1 v 3 h 1 v 3 h 1 v 2 h 1 v 3 h 1 v 3 h 1 v 2 h 1 v 3 h 1 v 3 h 1 v 2 h 1 v 3 h 1 v 3 h 1 v 2 h 1 v 3 h 1 v 3 h 1 v 2 h 1 v 3 h 1 v 3 h 1 v 2 h 1 v 3 h 1 v 3 h 1 v 2 h 1 v 3 h 1 v 3 h 1 v 2 h 1 v 3 h 1 v 3 h 1 v 2 h 1 v 3 h 1 v 3 h 793 v -1 h 6 v -1 h 7 v -1 h 6 v -1 h 6 v -1 h 4 v -1 h 4 v -1 h 4 v -1 h 4 v -1 h 4 v -1 h 3 v -1 h 3 v -1 h 3 v -1 h 2 v -1 h 3 v -1 h 3 v -1 h 3 v -1 h 2 v -1 h 3 v -1 h 2 v -1 h 2 v -1 h 2 v -1 h 2 v -1 h 2 v -1 h 3 v -1 h 2 v -1 h 2 v -1 h 2 v -1 h 2 v -1 h 2 v -1 h 1 v -1 h 2 v -1 h 2 v -1 h 1 v -1 h 2 v -1 h 2 v -1 h 1 v -1 h 2 v -1 h 1 v -1 h 2 v -1 h 2 v -1 h 1 v -1 h 2 v -1 h 1 v -1 h 1 v -1 h 2 v -1 h 1 v -1 h 1 v -1 h 2 v -1 h 1 v -1 h 1 v -1 h 2 v -1 h 1 v -1 h 1 v -1 h 2 v -1 h 1 v -1 h 1 v -1 h 1 v -1 h 1 v -1 h 1 v -1 h 2 v -1 h 1 v -1 h 1 v -1 h 1 v -1 h 1 v -1 h 1 v -1 h 1 v -1 h 1 v -1 h 1 v -1 h 1 v -1 h 2 v -1 h 1 v -2 h 1 v -1 h 1 v -1 h 1 v -1 h 1 v -1 h 1 v -1 h 1 v -1 h 1 v -1 h 1 v -1 h 1 v -1 h 1 v -2 h 1 v -1 h 1 v -1 h 1 v -1 h 1 v -1 h 1 v -1 h 1 v -1 h 1 v -2 h 1 v -1 h 1 v -1 h 1 v -2 h 1 v -1 h 1 v -1 h 1 v -2 h 1 v -1 h 1 v -1 h 1 v -2 h 1 v -1 h 1 v -1 h 1 v -2 h 1 v -1 h 1 v -2 h 1 v -2 h 1 v -1 h 1 v -2 h 1 v -2 h 1 v -1 h 1 v -2 h 1 v -2 h 1 v -1 h 1 v -2 h 1 v -2 h 1 v -2 h 1 v -2 h 1 v -2 h 1 v -2 h 1 v -2 h 1 v -2 h 1 v -2 h 1 v -2 h 1 v -2 h 1 v -2 h 1 v -3 h 1 v -2 h 1 v -3 h 1 v -3 h 1 v -3 h 1 v -2 h 1 v -3 h 1 v -3 h 1 v -3 h 1 v -3 h 1 v -4 h 1 v -4 h 1 v -4 h 1 v -4 h 1 v -4 h 1 v -7 h 1 v -6 h 1 v -7 h 1 v -9 h 1 v -39 h -1 v -11 h -1 v -6" /></g></g></g></g></g></svg>